<svg xmlns="http://www.w3.org/2000/svg" xmlns:xlink="http://www.w3.org/1999/xlink" version="1.1" x="0px" y="0px" viewBox="0 0 64 80" enable-background="new 0 0 64 64" xml:space="preserve"><g><path d="M32,12c-11.027832,0-20,8.972168-20,20c0,11.0283203,8.972168,20,20,20c11.0283203,0,20-8.9716797,20-20   C52,20.972168,43.0283203,12,32,12z M43,33.0439453h-9.9560547V43c0,0.5527344-0.4477539,1-1,1s-1-0.4472656-1-1v-9.9560547H21   c-0.5522461,0-1-0.4477539-1-1s0.4477539-1,1-1h10.0439453V21c0-0.5522461,0.4477539-1,1-1s1,0.4477539,1,1v10.0439453H43   c0.5527344,0,1,0.4477539,1,1S43.5527344,33.0439453,43,33.0439453z"/></g></svg>