<svg xmlns="http://www.w3.org/2000/svg" xmlns:xlink="http://www.w3.org/1999/xlink" version="1.1" x="0px" y="0px" viewBox="0 0 64 80" enable-background="new 0 0 64 64" xml:space="preserve"><g><path d="M46.1416016,17.8579102C42.3642578,14.0805664,37.3417969,12,32,12s-10.3642578,2.0805664-14.1416016,5.8579102   C14.0800781,21.6352539,12,26.6577148,12,32c0,5.3417969,2.0800781,10.3642578,5.8583984,14.1416016   C21.6357422,49.9199219,26.6582031,52,32,52s10.3642578-2.0800781,14.1416016-5.8583984C49.9199219,42.3642578,52,37.3417969,52,32   C52,26.6577148,49.9199219,21.6352539,46.1416016,17.8579102z M40.4541016,39.1025391   c0.390625,0.390625,0.390625,1.0234375,0,1.4140625c-0.1953125,0.1953125-0.4511719,0.2929688-0.7070313,0.2929688   s-0.5117188-0.0976563-0.7070313-0.2929688L32,33.4765625l-7.0400391,7.0400391   c-0.1953125,0.1953125-0.4511719,0.2929688-0.7070313,0.2929688s-0.5117188-0.0976563-0.7070313-0.2929688   c-0.390625-0.390625-0.390625-1.0234375,0-1.4140625L30.5859375,32.0625l-7.1025391-7.1025391   c-0.390625-0.390625-0.390625-1.0234375,0-1.4140625s1.0234375-0.390625,1.4140625,0L32,30.6484375l7.1025391-7.1025391   c0.390625-0.390625,1.0234375-0.390625,1.4140625,0s0.390625,1.0234375,0,1.4140625L33.4140625,32.0625L40.4541016,39.1025391z"/></g></svg>